<?xml version="1.0" encoding="UTF-8"?>
<svg version="1.1" xmlns="http://www.w3.org/2000/svg" width="1024" height="1024">
<path d="M0 0 C337.92 0 675.84 0 1024 0 C1024 337.92 1024 675.84 1024 1024 C686.08 1024 348.16 1024 0 1024 C0 686.08 0 348.16 0 0 Z " fill="#E6E5DB" transform="translate(0,0)"/>
<path d="M0 0 C1.12445526 -0.00974854 2.24891052 -0.01949707 3.40744019 -0.02954102 C26.51977713 -0.18896805 48.97696458 -0.26877324 71.71875 4.23828125 C73.93325015 4.64121593 76.14810088 5.0422281 78.36328125 5.44140625 C89.35780028 7.48094801 100.16943798 9.96681647 110.8984375 13.1171875 C114.16017333 14.07436356 117.4275733 14.95277611 120.71875 15.80078125 C124.03956244 16.70556063 127.20087811 17.76922113 130.38671875 19.0703125 C131.2586084 19.42440186 132.13049805 19.77849121 133.02880859 20.14331055 C134.36032959 20.68532104 134.36032959 20.68532104 135.71875 21.23828125 C137.40201763 21.90837187 139.08561052 22.57764604 140.76953125 23.24609375 C188.26474226 42.26932691 229.35996296 69.97543193 265.59375 105.98828125 C266.10486328 106.49472168 266.61597656 107.00116211 267.14257812 107.52294922 C271.19743299 111.59489653 274.97812957 115.87770308 278.71875 120.23828125 C279.53085938 121.1823584 279.53085938 121.1823584 280.359375 122.14550781 C313.53160686 161.00039198 337.56023685 206.18403873 351.71875 255.23828125 C352.13398926 256.6763916 352.13398926 256.6763916 352.55761719 258.14355469 C356.07956869 270.62120434 358.53336443 283.19246264 360.53125 295.98828125 C360.68936661 296.99908249 360.68936661 296.99908249 360.85067749 298.03030396 C362.78324464 310.53966323 363.866919 322.87867805 363.95703125 335.53515625 C363.97145012 337.24610725 363.97145012 337.24610725 363.98616028 338.99162292 C364.01073331 342.65720649 364.02340108 346.32262507 364.03125 349.98828125 C364.03453308 351.23562042 364.03781616 352.48295959 364.04119873 353.76809692 C364.05974361 375.5333156 363.16577206 396.81805663 358.21484375 418.09399414 C357.69064515 420.35976002 357.21611337 422.63256613 356.74609375 424.91015625 C354.41499847 435.9078376 351.5301311 446.68506596 348.21875 457.42578125 C347.85128662 458.63008789 347.48382324 459.83439453 347.10522461 461.07519531 C345.10468031 467.44405869 342.84133646 473.50765566 339.98681641 479.54174805 C338.67176099 482.33820301 337.4514528 485.16247201 336.24609375 488.0078125 C321.76685683 521.92007652 302.80057464 553.20910166 278.11181641 580.68212891 C276.91849077 582.01515688 275.74435154 583.36531772 274.57421875 584.71875 C263.37100725 597.55714424 251.17145663 609.77738962 237.71875 620.23828125 C235.84105452 621.83929199 233.96620955 623.44364998 232.09375 625.05078125 C201.3704379 650.62714673 165.01660561 668.54067892 127.71875 682.23828125 C126.98172852 682.5115625 126.24470703 682.78484375 125.48535156 683.06640625 C109.10899595 689.07914263 91.8928757 692.77773605 74.78125 695.98828125 C73.72969727 696.18679688 72.67814453 696.3853125 71.59472656 696.58984375 C68.30835778 697.18421952 65.01875921 697.72499325 61.71875 698.23828125 C60.50445313 698.42737061 59.29015625 698.61645996 58.0390625 698.8112793 C44.93758661 700.67831231 31.80301211 700.59038735 18.59375 700.55078125 C17.40231384 700.54962311 16.21087769 700.54846497 14.9833374 700.54727173 C-9.07414665 700.50103452 -32.70382825 699.36855358 -56.28125 694.23828125 C-57.415625 694.0371875 -58.55 693.83609375 -59.71875 693.62890625 C-110.51800644 684.49395224 -159.78599526 659.83413635 -200.28125 628.23828125 C-201.09335937 627.60792969 -201.90546875 626.97757813 -202.7421875 626.328125 C-205.28061653 624.32777721 -207.78338807 622.28904068 -210.28125 620.23828125 C-211.71210938 619.08779297 -211.71210938 619.08779297 -213.171875 617.9140625 C-221.4327606 611.14154405 -229.02945662 603.70506145 -236.59375 596.17578125 C-237.36129608 595.41599976 -237.36129608 595.41599976 -238.14434814 594.64086914 C-244.99595316 587.84393631 -251.27450878 580.80745649 -257.28125 573.23828125 C-258.25768142 572.06433849 -259.23757562 570.89325701 -260.22265625 569.7265625 C-285.45764217 539.37835825 -303.57249329 504.0386492 -317.18823242 467.19433594 C-317.89425601 465.28490249 -318.60990596 463.3789884 -319.3371582 461.47753906 C-321.96535378 454.50850452 -323.93714596 447.46697089 -325.71875 440.23828125 C-326.0187793 439.02205078 -326.31880859 437.80582031 -326.62792969 436.55273438 C-339.18093064 384.65270697 -341.63401777 330.64880315 -330.28125 278.23828125 C-330.08192871 277.31176758 -329.88260742 276.38525391 -329.67724609 275.43066406 C-317.48871047 220.23977375 -291.91369392 168.28763286 -255.28125 125.23828125 C-254.36969685 124.14070374 -253.45824507 123.04304204 -252.546875 121.9453125 C-240.13902743 107.16398263 -226.56959388 93.04901902 -211.28125 81.23828125 C-210.10721432 80.26849982 -208.93692904 79.29416807 -207.76953125 78.31640625 C-175.83417106 51.64952877 -139.46414878 32.00867678 -100.28125 18.23828125 C-98.93872428 17.75412194 -97.59626693 17.26977296 -96.25390625 16.78515625 C-92.61985892 15.51625133 -88.96738247 14.34385265 -85.28125 13.23828125 C-84.53343262 13.01076172 -83.78561523 12.78324219 -83.01513672 12.54882812 C-69.9042825 8.63980778 -56.64129188 6.11192514 -43.15625 3.92578125 C-42.36619568 3.79672394 -41.57614136 3.66766663 -40.762146 3.53469849 C-38.45456421 3.16117596 -36.14570619 2.79723197 -33.8359375 2.4375 C-32.83203979 2.2769664 -32.83203979 2.2769664 -31.80786133 2.1131897 C-21.26606645 0.51665774 -10.64876935 0.07724911 0 0 Z " fill="#E6E5DA" transform="translate(498.28125,161.76171875)"/>
<path d="M0 0 C1.12445526 -0.00974854 2.24891052 -0.01949707 3.40744019 -0.02954102 C26.51977713 -0.18896805 48.97696458 -0.26877324 71.71875 4.23828125 C73.93325015 4.64121593 76.14810088 5.0422281 78.36328125 5.44140625 C89.35780028 7.48094801 100.16943798 9.96681647 110.8984375 13.1171875 C114.16017333 14.07436356 117.4275733 14.95277611 120.71875 15.80078125 C124.03956244 16.70556063 127.20087811 17.76922113 130.38671875 19.0703125 C131.2586084 19.42440186 132.13049805 19.77849121 133.02880859 20.14331055 C134.36032959 20.68532104 134.36032959 20.68532104 135.71875 21.23828125 C137.40201763 21.90837187 139.08561052 22.57764604 140.76953125 23.24609375 C188.26474226 42.26932691 229.35996296 69.97543193 265.59375 105.98828125 C266.10486328 106.49472168 266.61597656 107.00116211 267.14257812 107.52294922 C271.19743299 111.59489653 274.97812957 115.87770308 278.71875 120.23828125 C279.53085938 121.1823584 279.53085938 121.1823584 280.359375 122.14550781 C313.53160686 161.00039198 337.56023685 206.18403873 351.71875 255.23828125 C352.13398926 256.6763916 352.13398926 256.6763916 352.55761719 258.14355469 C356.07956869 270.62120434 358.53336443 283.19246264 360.53125 295.98828125 C360.68936661 296.99908249 360.68936661 296.99908249 360.85067749 298.03030396 C362.78324464 310.53966323 363.866919 322.87867805 363.95703125 335.53515625 C363.97145012 337.24610725 363.97145012 337.24610725 363.98616028 338.99162292 C364.01073331 342.65720649 364.02340108 346.32262507 364.03125 349.98828125 C364.03453308 351.23562042 364.03781616 352.48295959 364.04119873 353.76809692 C364.05974361 375.5333156 363.16577206 396.81805663 358.21484375 418.09399414 C357.69064515 420.35976002 357.21611337 422.63256613 356.74609375 424.91015625 C354.41499847 435.9078376 351.5301311 446.68506596 348.21875 457.42578125 C347.85128662 458.63008789 347.48382324 459.83439453 347.10522461 461.07519531 C345.10468031 467.44405869 342.84133646 473.50765566 339.98681641 479.54174805 C338.67176099 482.33820301 337.4514528 485.16247201 336.24609375 488.0078125 C321.76685683 521.92007652 302.80057464 553.20910166 278.11181641 580.68212891 C276.91849077 582.01515688 275.74435154 583.36531772 274.57421875 584.71875 C263.37100725 597.55714424 251.17145663 609.77738962 237.71875 620.23828125 C235.84105452 621.83929199 233.96620955 623.44364998 232.09375 625.05078125 C201.3704379 650.62714673 165.01660561 668.54067892 127.71875 682.23828125 C126.98172852 682.5115625 126.24470703 682.78484375 125.48535156 683.06640625 C109.10899595 689.07914263 91.8928757 692.77773605 74.78125 695.98828125 C73.72969727 696.18679688 72.67814453 696.3853125 71.59472656 696.58984375 C68.30835778 697.18421952 65.01875921 697.72499325 61.71875 698.23828125 C60.50445313 698.42737061 59.29015625 698.61645996 58.0390625 698.8112793 C44.93758661 700.67831231 31.80301211 700.59038735 18.59375 700.55078125 C17.40231384 700.54962311 16.21087769 700.54846497 14.9833374 700.54727173 C-9.07414665 700.50103452 -32.70382825 699.36855358 -56.28125 694.23828125 C-57.415625 694.0371875 -58.55 693.83609375 -59.71875 693.62890625 C-110.51800644 684.49395224 -159.78599526 659.83413635 -200.28125 628.23828125 C-201.09335937 627.60792969 -201.90546875 626.97757813 -202.7421875 626.328125 C-205.28061653 624.32777721 -207.78338807 622.28904068 -210.28125 620.23828125 C-211.71210938 619.08779297 -211.71210938 619.08779297 -213.171875 617.9140625 C-221.4327606 611.14154405 -229.02945662 603.70506145 -236.59375 596.17578125 C-237.36129608 595.41599976 -237.36129608 595.41599976 -238.14434814 594.64086914 C-244.99595316 587.84393631 -251.27450878 580.80745649 -257.28125 573.23828125 C-258.25768142 572.06433849 -259.23757562 570.89325701 -260.22265625 569.7265625 C-285.45764217 539.37835825 -303.57249329 504.0386492 -317.18823242 467.19433594 C-317.89425601 465.28490249 -318.60990596 463.3789884 -319.3371582 461.47753906 C-321.96535378 454.50850452 -323.93714596 447.46697089 -325.71875 440.23828125 C-326.0187793 439.02205078 -326.31880859 437.80582031 -326.62792969 436.55273438 C-339.18093064 384.65270697 -341.63401777 330.64880315 -330.28125 278.23828125 C-330.08192871 277.31176758 -329.88260742 276.38525391 -329.67724609 275.43066406 C-317.48871047 220.23977375 -291.91369392 168.28763286 -255.28125 125.23828125 C-254.36969685 124.14070374 -253.45824507 123.04304204 -252.546875 121.9453125 C-240.13902743 107.16398263 -226.56959388 93.04901902 -211.28125 81.23828125 C-210.10721432 80.26849982 -208.93692904 79.29416807 -207.76953125 78.31640625 C-175.83417106 51.64952877 -139.46414878 32.00867678 -100.28125 18.23828125 C-98.93872428 17.75412194 -97.59626693 17.26977296 -96.25390625 16.78515625 C-92.61985892 15.51625133 -88.96738247 14.34385265 -85.28125 13.23828125 C-84.53343262 13.01076172 -83.78561523 12.78324219 -83.01513672 12.54882812 C-69.9042825 8.63980778 -56.64129188 6.11192514 -43.15625 3.92578125 C-42.36619568 3.79672394 -41.57614136 3.66766663 -40.762146 3.53469849 C-38.45456421 3.16117596 -36.14570619 2.79723197 -33.8359375 2.4375 C-32.83203979 2.2769664 -32.83203979 2.2769664 -31.80786133 2.1131897 C-21.26606645 0.51665774 -10.64876935 0.07724911 0 0 Z M-51.28125 30.23828125 C-52.56950684 30.48288086 -52.56950684 30.48288086 -53.88378906 30.73242188 C-78.76890497 35.4950327 -103.62240755 43.93971837 -126.28125 55.23828125 C-127.22806641 55.69895996 -128.17488281 56.15963867 -129.15039062 56.63427734 C-150.28182419 66.95325794 -170.01239288 79.41440862 -188.28125 94.23828125 C-189.20421875 94.97046875 -190.1271875 95.70265625 -191.078125 96.45703125 C-208.89878641 110.75383306 -226.41603537 127.04590074 -240.28125 145.23828125 C-240.87808594 145.95628906 -241.47492188 146.67429687 -242.08984375 147.4140625 C-258.41318559 167.06315797 -271.39946895 189.18849477 -282.28125 212.23828125 C-282.6431543 212.99931152 -283.00505859 213.7603418 -283.37792969 214.54443359 C-292.02179755 232.8380414 -298.19364491 251.19838502 -303.09375 270.80078125 C-303.28888184 271.58122803 -303.48401367 272.3616748 -303.68505859 273.16577148 C-306.43849176 284.24595026 -308.82909437 295.2851845 -310.34375 306.61328125 C-310.49972656 307.75539063 -310.65570313 308.8975 -310.81640625 310.07421875 C-312.27135284 322.53940353 -312.49811007 334.92501259 -312.52148438 347.46337891 C-312.5311227 350.57221947 -312.56220476 353.68037802 -312.59375 356.7890625 C-312.66732909 370.8365495 -311.42598921 384.36576992 -309.28125 398.23828125 C-308.9981192 400.15364176 -308.71556454 402.06908752 -308.43359375 403.98461914 C-304.96599669 427.13586035 -298.74577717 450.64338592 -289.24755859 472.05566406 C-288.28089111 474.23909187 -287.35061663 476.43528811 -286.42578125 478.63671875 C-272.26436518 511.92452419 -252.67863622 542.52473022 -228.28125 569.23828125 C-227.63333496 569.94791016 -226.98541992 570.65753906 -226.31787109 571.38867188 C-218.65131659 579.74159329 -210.93432442 587.89210996 -202.28125 595.23828125 C-201.33636719 596.07101562 -200.39148438 596.90375 -199.41796875 597.76171875 C-168.6414122 624.67717202 -131.07377604 646.4073319 -92.28125 659.23828125 C-91.0439917 659.66052979 -91.0439917 659.66052979 -89.78173828 660.09130859 C-77.28051516 664.32593592 -64.63214416 667.39946225 -51.71875 670.05078125 C-50.64716141 670.27145264 -50.64716141 670.27145264 -49.55392456 670.49658203 C-9.00404294 678.77847533 33.07741921 679.02528432 73.71875 671.23828125 C74.92853516 671.01366211 76.13832031 670.78904297 77.38476562 670.55761719 C132.34461517 660.13315097 184.91796162 634.38919059 226.71875 597.23828125 C227.81860229 596.26761719 227.81860229 596.26761719 228.94067383 595.27734375 C235.25044329 589.66260823 241.30737335 583.83276857 247.28125 577.86328125 C248.16232422 576.99445312 249.04339844 576.125625 249.95117188 575.23046875 C255.97988956 569.21509878 261.42361982 562.9030748 266.71875 556.23828125 C267.76709214 554.96023495 268.81757044 553.68393496 269.87109375 552.41015625 C276.72432292 544.02773371 282.93909833 535.39243319 288.71875 526.23828125 C289.08532715 525.66207031 289.4519043 525.08585937 289.82958984 524.4921875 C311.99203329 489.41408051 326.88615755 450.91459032 334.71875 410.23828125 C334.88455566 409.40441895 335.05036133 408.57055664 335.22119141 407.71142578 C338.98343068 388.56886141 339.89944019 369.26524473 339.90625 349.80078125 C339.90724701 349.05322571 339.90824402 348.30567017 339.90927124 347.53546143 C339.90697896 332.37268503 339.35360242 317.35405196 336.90625 302.36328125 C336.72811768 301.25033691 336.54998535 300.13739258 336.36645508 298.99072266 C330.58205557 263.56031968 319.54656083 229.98915755 302.71875 198.23828125 C302.14471436 197.15401855 302.14471436 197.15401855 301.55908203 196.04785156 C285.9678566 166.82608685 265.60096813 140.89363963 242.15625 117.55078125 C241.26228516 116.65294922 240.36832031 115.75511719 239.44726562 114.83007812 C200.5234704 75.96323066 151.24417443 50.32222097 98.71875 35.23828125 C97.96916016 35.01946289 97.21957031 34.80064453 96.44726562 34.57519531 C48.97241871 20.78842537 -3.00413756 20.55183456 -51.28125 30.23828125 Z " fill="#455344" transform="translate(498.28125,161.76171875)"/>
<path d="M0 0 C0.85980972 0.36073608 1.71961945 0.72147217 2.60548401 1.09313965 C5.27559548 2.22006367 7.93334047 3.37265889 10.58984375 4.53125 C12.20936239 5.22812089 13.82898818 5.92474283 15.44873047 6.62109375 C19.476131 8.36288426 23.49099488 10.13184752 27.50195312 11.91113281 C31.95374822 13.88569158 36.41078125 15.84837599 40.8671875 17.8125 C41.77040741 18.21090088 42.67362732 18.60930176 43.60421753 19.01977539 C52.41337829 22.90204393 61.24908208 26.72163011 70.08984375 30.53125 C83.25856714 36.20880367 96.40021749 41.94568734 109.52734375 47.71875 C129.35051935 56.43471439 149.20952768 65.06450168 169.10025024 73.62524414 C173.76094926 75.63135666 178.42114297 77.63864183 183.08135986 79.64587402 C186.53849671 81.13414549 189.99652124 82.62034038 193.45458984 84.10644531 C195.60387927 85.0318125 197.75313218 85.9572645 199.90234375 86.8828125 C200.89166901 87.30726654 201.88099426 87.73172058 202.90029907 88.16903687 C215.78098106 93.72238731 215.78098106 93.72238731 218.58984375 96.53125 C218.62109375 98.9453125 218.62109375 98.9453125 217.58984375 101.53125 C215.37788928 102.94168164 213.48396996 103.91781058 211.08984375 104.90625 C210.43218018 105.19443604 209.7745166 105.48262207 209.09692383 105.77954102 C206.93634517 106.71803049 204.76441147 107.6256908 202.58984375 108.53125 C201.02069092 109.19888413 199.45168181 109.86685615 197.8828125 110.53515625 C186.02548298 115.53125 186.02548298 115.53125 183.58984375 115.53125 C183.60614285 122.40025344 183.66100747 129.26818073 183.74243164 136.13671875 C183.76559912 138.47225974 183.78000439 140.80790502 183.78540039 143.14355469 C183.79469861 146.50521747 183.83571142 149.8652427 183.8828125 153.2265625 C183.87691353 154.78783371 183.87691353 154.78783371 183.87089539 156.38064575 C184.00378615 163.01441911 184.92479817 165.82642602 189.58984375 170.53125 C190.30577333 174.98592296 190.09768825 176.7925671 187.52734375 180.53125 C185.43515842 183.77076277 185.43125178 184.73702499 186.08032227 188.390625 C187.14261751 192.85358845 188.63489338 197.1839284 190.08984375 201.53125 C190.73070216 203.44610403 191.36625434 205.36274335 191.99609375 207.28125 C192.27775391 208.12171875 192.55941406 208.9621875 192.84960938 209.828125 C193.71750176 212.99742068 194.12513584 216.2782946 194.58984375 219.53125 C183.69984375 219.53125 172.80984375 219.53125 161.58984375 219.53125 C163.20282703 214.15463907 164.80827334 208.80650494 166.53149414 203.4699707 C170.06518158 193.6780371 170.06518158 193.6780371 171.58984375 183.53125 C169.74434341 180.93269575 169.74434341 180.93269575 167.58984375 178.53125 C166.67936247 173.86718081 166.97752902 170.53136406 169.46484375 166.46875 C171.58984375 164.53125 171.58984375 164.53125 173.58984375 164.53125 C173.58984375 150.01125 173.58984375 135.49125 173.58984375 120.53125 C150.5714522 130.13350576 150.5714522 130.13350576 127.66137695 139.98999023 C121.80569255 142.53125 121.80569255 142.53125 119.58984375 142.53125 C119.55246094 141.66242188 119.51507812 140.79359375 119.4765625 139.8984375 C119.04070813 132.25816671 118.54135186 127.00361248 113.46484375 121.03125 C105.6639191 114.24783726 97.16158443 110.32070936 87.58984375 106.53125 C86.59082031 106.10972656 85.59179688 105.68820312 84.5625 105.25390625 C58.44153292 94.94386502 27.68103866 91.39159529 -0.26171875 91.36328125 C-1.44124115 91.35995285 -2.62076355 91.35662445 -3.83602905 91.35319519 C-6.31499852 91.34816908 -8.79397466 91.34578552 -11.27294922 91.34594727 C-15.00500008 91.34376761 -18.73675146 91.32558353 -22.46875 91.30664062 C-39.60523948 91.26572677 -56.28943494 92.09963264 -73.16015625 95.28125 C-74.50895874 95.53285889 -74.50895874 95.53285889 -75.88500977 95.78955078 C-112.96635341 102.56096747 -112.96635341 102.56096747 -142.66015625 123.59375 C-145.21691515 127.88545243 -145.63145664 131.29572711 -145.97265625 136.21875 C-146.05644531 137.39824219 -146.14023437 138.57773437 -146.2265625 139.79296875 C-146.28714844 140.69660156 -146.34773438 141.60023438 -146.41015625 142.53125 C-152.6766093 140.54580623 -158.72285107 138.23584547 -164.76171875 135.64453125 C-166.08354912 135.0829129 -166.08354912 135.0829129 -167.43208313 134.50994873 C-170.30101134 133.29076822 -173.16806512 132.06724359 -176.03515625 130.84375 C-180.06905991 129.12724894 -184.10436665 127.41408147 -188.140625 125.703125 C-189.1603389 125.27085098 -190.1800528 124.83857697 -191.23066711 124.39320374 C-198.07877573 121.49772743 -204.94755669 118.65760443 -211.8359375 115.859375 C-212.73233948 115.49478683 -213.62874146 115.13019867 -214.55230713 114.75456238 C-218.79698103 113.02995345 -223.04489538 111.31393805 -227.29736328 109.60864258 C-228.8233249 108.99060131 -230.34920828 108.37236684 -231.875 107.75390625 C-232.55428055 107.48487488 -233.2335611 107.21584351 -233.9334259 106.93865967 C-238.16896685 105.21321405 -241.70611497 103.16544945 -245.41015625 100.53125 C-245.5078125 97.8269043 -245.5078125 97.8269043 -244.41015625 94.53125 C-241.47266469 92.41546685 -238.18695707 91.1629662 -234.84765625 89.80078125 C-233.8625708 89.37698685 -232.87748535 88.95319244 -231.86254883 88.51655579 C-229.77265693 87.62018822 -227.67834157 86.73407487 -225.58007812 85.85748291 C-222.53879977 84.58507191 -219.5118693 83.28403284 -216.48828125 81.97021484 C-211.50916624 79.80957411 -206.52013066 77.67323579 -201.52655029 75.54626465 C-196.14435249 73.25356792 -190.76589949 70.95210788 -185.38671875 68.65234375 C-184.3353775 68.20315582 -183.28403625 67.7539679 -182.20083618 67.29116821 C-161.41454021 58.40847476 -140.70145818 49.35636329 -119.98193359 40.31933594 C-111.01216782 36.40732499 -102.0406957 32.49927972 -93.06640625 28.59765625 C-92.1092572 28.18138474 -91.15210815 27.76511322 -90.16595459 27.33622742 C-85.3143431 25.22663996 -80.46153747 23.11987596 -75.60644531 21.01831055 C-67.02850121 17.30206749 -58.46010841 13.57016674 -49.93737793 9.7286377 C-46.36115127 8.11733599 -42.77934834 6.51864248 -39.19726562 4.92041016 C-37.52819265 4.17099768 -35.86206554 3.41498337 -34.19921875 2.65185547 C-31.90687569 1.60010217 -29.60536427 0.57146814 -27.30078125 -0.453125 C-26.64547424 -0.7614325 -25.99016724 -1.06973999 -25.31500244 -1.38739014 C-16.42371732 -5.26999431 -8.62390048 -3.78344638 0 0 Z " fill="#445243" transform="translate(525.41015625,264.46875)"/>
<path d="M0 0 C31.1056704 0 60.01388278 3.40555311 89 15 C90.29260742 15.50853516 90.29260742 15.50853516 91.61132812 16.02734375 C104.09338327 20.98385438 115.62872688 26.86128464 127 34 C125.52069807 37.96479572 123.76352943 40.77588233 121 44 C116.51630822 42.67871885 112.53131678 40.82447723 108.38012695 38.7253418 C78.38961649 23.6830348 48.15494466 18.82557054 15 15 C15 71.43 15 127.86 15 186 C19.95 186.33 24.9 186.66 30 187 C34.19295625 187.66840504 38.29157116 188.37930838 42.4375 189.25 C43.51660645 189.47252441 44.59571289 189.69504883 45.70751953 189.92431641 C53.65837979 191.61151107 61.37469925 193.60720634 69.04248047 196.31103516 C71.12707546 197.04472524 73.22137517 197.74592994 75.31640625 198.44921875 C94.98025239 205.21715209 113.74237183 214.40503107 131 226 C133.97 227.98 136.94 229.96 140 232 C140 216.49 140 200.98 140 185 C142.97 185.66 145.94 186.32 149 187 C156.66808033 187.55648822 163.64599145 187.1933008 171 185 C174.75 184.125 174.75 184.125 178 184 C180.17871094 185.36621094 180.17871094 185.36621094 182 188 C182.55771721 191.34136771 182.46470089 194.63639142 182.390625 198.015625 C182.38496521 198.98659119 182.37930542 199.95755737 182.37347412 200.95794678 C182.35110311 204.05580169 182.30090473 207.15249533 182.25 210.25 C182.22993597 212.35154578 182.21168503 214.45310972 182.1953125 216.5546875 C182.1512358 221.7035717 182.08220258 226.85158903 182 232 C182.82387207 231.41919678 183.64774414 230.83839355 184.49658203 230.23999023 C220.93135827 204.69167776 262.56763545 188.96215764 307 186 C307 129.57 307 73.14 307 15 C285.75996602 17.00068208 285.75996602 17.00068208 264.875 20.625 C263.1748877 21.00132568 263.1748877 21.00132568 261.44042969 21.38525391 C241.8238775 25.93492504 223.34966733 32.90622212 205.828125 42.7890625 C203 44 203 44 200.796875 43.90234375 C198.57130597 42.78472104 197.6366809 41.62112196 196.25 39.5625 C195.82203125 38.94503906 195.3940625 38.32757812 194.953125 37.69140625 C194 36 194 36 194 34 C222.38955445 17.89496925 250.7605257 6.96503926 283 1.75 C284.0118335 1.57452637 285.02366699 1.39905273 286.06616211 1.21826172 C298.24460318 -0.63264467 309.27850061 0 322 0 C322 66.33 322 132.66 322 201 C312.1 201.66 302.2 202.32 292 203 C286.77325031 203.68527965 281.8121476 204.37696909 276.6875 205.4375 C275.4308252 205.69208984 274.17415039 205.94667969 272.87939453 206.20898438 C241.49160972 212.82715455 199.03169694 225.96830306 176 249 C177.31484375 248.29037109 177.31484375 248.29037109 178.65625 247.56640625 C208.81088846 231.69040978 245.92777172 220.33281074 280.2265625 218.71875 C280.9484375 218.68136719 281.6703125 218.64398437 282.4140625 218.60546875 C283.89581564 218.53478441 285.37758675 218.4644758 286.859375 218.39453125 C290.71265484 218.19427119 294.1940591 217.76118818 298 217 C310.21 217 322.42 217 335 217 C335 155.62 335 94.24 335 31 C340.28 31 345.56 31 351 31 C351 97.66 351 164.32 351 233 C317.835 233.495 317.835 233.495 284 234 C244.39021635 237.77236035 202.56369578 244.55721165 165.47265625 259.83203125 C160.08912482 261.6426903 156.15858764 259.7936652 150.93359375 257.9609375 C149.73968018 257.54859863 148.5457666 257.13625977 147.31567383 256.71142578 C146.68416412 256.49327209 146.05265442 256.27511841 145.40200806 256.050354 C130.13326326 250.80130048 114.73974417 246.62133222 99 243 C97.36066726 242.60811401 95.72134336 242.21619102 94.08203125 241.82421875 C84.43105438 239.58968415 74.68655919 238.15308567 64.875 236.8125 C63.66021973 236.64532471 62.44543945 236.47814941 61.19384766 236.3059082 C31.40180424 232.42650687 0.81360615 233.48086462 -29 233 C-29 166.01 -29 99.02 -29 30 C-23.72 30 -18.44 30 -13 30 C-13 91.71 -13 153.42 -13 217 C-1.45 217 10.1 217 22 217 C34.3775255 217.96269643 34.3775255 217.96269643 40.00927734 218.73095703 C41.8634379 218.98154385 43.72270635 219.19349919 45.58203125 219.40234375 C69.93697833 222.27245536 93.23068961 227.80298791 116.3125 235.9375 C117.46935303 236.34444092 118.62620605 236.75138184 119.81811523 237.1706543 C127.77141512 240.03484146 135.38141552 243.34147338 143 247 C124.31508804 233.540787 103.74453767 223.45763231 82 216 C81.15501953 215.69900391 80.31003906 215.39800781 79.43945312 215.08789062 C68.30554883 211.13497532 57.06708665 208.15341297 45.5 205.75 C44.40631104 205.51587402 43.31262207 205.28174805 42.18579102 205.04052734 C28.17703043 202.28829567 14.34509946 201.43450995 0 200 C0 134 0 68 0 0 Z " fill="#495647" transform="translate(351,520)"/>
<path d="M0 0 C1.28173096 0.24339111 1.28173096 0.24339111 2.58935547 0.49169922 C20.70677696 4.00042305 43.92161654 10.26285289 56 25 C57.30760893 27.61521785 57.11997548 29.53113401 57.11352539 32.45947266 C57.11344986 33.60050446 57.11337433 34.74153625 57.11329651 35.91714478 C57.10813522 37.15362762 57.10297394 38.39011047 57.09765625 39.6640625 C57.09553383 41.5575795 57.09553383 41.5575795 57.09336853 43.48934937 C57.08871078 46.84638299 57.07972408 50.203349 57.06866455 53.56036377 C57.0584377 56.98554906 57.05386818 60.41074134 57.04882812 63.8359375 C57.03778238 70.55731043 57.02103194 77.27865131 57 84 C49.51931402 83.11246099 49.51931402 83.11246099 46.48144531 82.45458984 C43.09392029 81.83401019 39.73007643 81.7789761 36.296875 81.7265625 C35.55019058 81.71407974 34.80350616 81.70159698 34.03419495 81.68873596 C16.05856885 81.44698849 -0.51523243 82.4045817 -18 87 C-19.59438215 87.37913054 -21.18940625 87.75557482 -22.78515625 88.12890625 C-37.34126366 91.68751912 -52.7869689 97.23212764 -64.96484375 106.1015625 C-67.96326958 107.42524377 -69.87606074 106.83464026 -73 106 C-75.60546875 104.765625 -75.60546875 104.765625 -78.1875 103.25 C-92.39548704 95.21606401 -107.28637029 89.82996156 -123.1875 86.25 C-124.48909821 85.94471694 -125.7905313 85.63872904 -127.09179688 85.33203125 C-139.45901188 82.49117022 -151.12037604 81.81342134 -163.75073242 81.81469727 C-166.19271901 81.81249529 -168.63426388 81.79423666 -171.07617188 81.77539062 C-172.64843598 81.77245844 -174.22070219 81.77047247 -175.79296875 81.76953125 C-176.87290352 81.75875298 -176.87290352 81.75875298 -177.97465515 81.74775696 C-182.65030045 81.7686675 -186.54750447 82.64433785 -191 84 C-192.32 84 -193.64 84 -195 84 C-195.18621842 76.72402183 -195.32793255 69.44856575 -195.41449738 62.17067814 C-195.45606848 58.79025048 -195.51234475 55.41146497 -195.60351562 52.03198242 C-195.70102132 48.13677341 -195.74603597 44.24386672 -195.78125 40.34765625 C-195.84318542 38.54712547 -195.84318542 38.54712547 -195.90637207 36.71022034 C-195.9097129 30.40447867 -195.38155346 26.66555634 -191.16772461 21.81689453 C-148.91255926 -19.92566226 -51.59375628 -10.06844412 0 0 Z " fill="#435243" transform="translate(581,373)"/>
<path d="M0 0 C0.68496552 -0.00261841 1.36993103 -0.00523682 2.07565308 -0.00793457 C20.01336743 -0.01524064 37.59978667 2.52853926 54.625 8.3125 C55.32334961 8.54275879 56.02169922 8.77301758 56.74121094 9.01025391 C70.3646894 13.54266918 83.64088252 19.32308835 95.625 27.3125 C100.58696812 27.10870488 104.47648035 24.21647854 108.625 21.75 C123.87794739 13.00596184 140.54838629 7.33327694 157.625 3.3125 C158.28870605 3.14878906 158.95241211 2.98507812 159.63623047 2.81640625 C170.41787775 0.24896847 181.21981068 0.02813427 192.25 0 C192.95094788 -0.00367584 193.65189575 -0.00735168 194.37408447 -0.01113892 C204.27781447 -0.03826646 212.81445206 0.27790118 221.625 5.3125 C223.625 7.3125 223.625 7.3125 223.75 10 C221.75401059 15.87707992 217.28520359 18.9407141 211.8828125 21.7265625 C148.7248949 49.03356666 53.20404072 49.3674625 -10.8125 24.3125 C-17.97490685 21.26907462 -23.94839782 17.82980058 -28.375 11.3125 C-29.0625 8.875 -29.0625 8.875 -28.375 6.3125 C-20.27237084 -0.82981756 -10.19762232 0.03714704 0 0 Z " fill="#455344" transform="translate(414.375,465.6875)"/>
<path d="M0 0 C3.03982947 1.31527209 4.67169672 2.50723465 6.5234375 5.24609375 C7.20768799 6.23971924 7.20768799 6.23971924 7.90576172 7.25341797 C8.39061035 7.97416504 8.87545898 8.69491211 9.375 9.4375 C10.44608413 10.99214955 11.5190736 12.54548775 12.59375 14.09765625 C13.43099609 15.31026123 13.43099609 15.31026123 14.28515625 16.54736328 C17.0780893 20.54192556 19.97349872 24.45892811 22.875 28.375 C23.45870361 29.16438965 24.04240723 29.9537793 24.64379883 30.76708984 C25.83307183 32.37462066 27.02293328 33.98171629 28.21337891 35.58837891 C35.91553836 45.98492593 43.59235931 56.39994139 51.1875 66.875 C51.72834229 67.6182251 52.26918457 68.3614502 52.82641602 69.12719727 C53.33100342 69.82514404 53.83559082 70.52309082 54.35546875 71.2421875 C54.79528076 71.8491748 55.23509277 72.45616211 55.68823242 73.08154297 C57.22199596 75.32466857 58.60193003 77.66988339 60 80 C47.79 80 35.58 80 23 80 C23 86.6 23 93.2 23 100 C18 98 18 98 15.53515625 96.96484375 C3.19678263 91.83847367 -7.30042913 92.0416922 -20 96 C-20 90.39 -20 84.78 -20 79 C-32.21 79 -44.42 79 -57 79 C-55.21016366 74.52540915 -53.68717481 72.06105713 -50.75 68.375 C-49.84323846 67.22147543 -48.93840458 66.06643385 -48.03515625 64.91015625 C-47.5467627 64.28512207 -47.05836914 63.66008789 -46.55517578 63.01611328 C-43.70778489 59.32478612 -40.94887588 55.56836808 -38.1875 51.8125 C-37.59291992 51.00409668 -36.99833984 50.19569336 -36.38574219 49.36279297 C-31.86198232 43.19901773 -27.38329093 37.0033864 -22.91503906 30.79931641 C-18.78633419 25.07285067 -14.62198573 19.37332319 -10.4375 13.6875 C-9.85355469 12.89279297 -9.26960938 12.09808594 -8.66796875 11.27929688 C-5.85024668 7.45759673 -3.00362304 3.67925463 0 0 Z " fill="#445344" transform="translate(511,527)"/>
<path d="M0 0 C8.4537283 4.99750789 15.40235135 12.06287547 17.9296875 21.8203125 C19.19394639 30.46371515 18.73935076 38.39693796 15.3125 46.4375 C14.7246875 47.9534375 14.7246875 47.9534375 14.125 49.5 C13.856875 50.139375 13.58875 50.77875 13.3125 51.4375 C14.42310791 51.82252686 14.42310791 51.82252686 15.55615234 52.21533203 C18.43400911 53.49137729 20.14423002 54.83313206 22.4140625 56.9921875 C23.15140625 57.68957031 23.88875 58.38695312 24.6484375 59.10546875 C25.40382813 59.83378906 26.15921875 60.56210937 26.9375 61.3125 C27.700625 62.03308594 28.46375 62.75367188 29.25 63.49609375 C36.10894196 70.03013846 36.10894196 70.03013846 38.3125 73.4375 C38.3125 77.39871655 37.76289605 78.94957094 35.0625 81.875 C32.3125 83.4375 32.3125 83.4375 29.9375 83.5625 C22.91744035 80.55390301 18.13205724 74.13622922 13.3125 68.4375 C12.00254271 66.93527892 10.69012069 65.43520284 9.375 63.9375 C8.35416667 62.77083333 7.33333333 61.60416667 6.3125 60.4375 C2.94619819 60.98887702 0.50089999 61.80617025 -2.4375 63.5 C-10.28508543 67.0504101 -20.02180828 66.87068333 -28.171875 64.3671875 C-38.6080804 59.51991443 -45.59866597 52.19481871 -49.6875 41.4375 C-51.98847642 32.07134598 -51.28347253 22.97639802 -46.6875 14.4375 C-42.08050681 8.09270191 -36.76935028 2.89206111 -29.6875 -0.5625 C-28.96175781 -0.9234375 -28.23601562 -1.284375 -27.48828125 -1.65625 C-18.92196961 -4.42805516 -8.06986706 -3.8306331 0 0 Z " fill="#495648" transform="translate(524.6875,632.5625)"/>
<path d="M0 0 C3.39043525 2.01044404 6.01296637 4.28062217 8.5625 7.3125 C9.02914062 7.83070313 9.49578125 8.34890625 9.9765625 8.8828125 C14.22938101 14.37108667 14.29213806 19.9049761 14.04296875 26.6796875 C13.02794944 34.35422373 9.30063311 39.21831995 3.50390625 44.12109375 C-3.17159815 48.21773126 -10.86955939 48.27970317 -18.4375 47.3125 C-25.67224494 44.31524852 -30.44928858 38.80900974 -34.25 32.125 C-36.42656646 25.13707609 -36.47472487 18.82510983 -33.5 12.0625 C-26.96644237 0.37282993 -12.62422717 -5.92810668 0 0 Z " fill="#E2E3D7" transform="translate(519.4375,640.6875)"/>
<path d="M0 0 C0.66 0 1.32 0 2 0 C2.51046875 1.17755859 2.51046875 1.17755859 3.03125 2.37890625 C8.05320028 13.26425062 13.78827324 18.82155554 25 23 C25 23.66 25 24.32 25 25 C24.21496094 25.3403125 23.42992187 25.680625 22.62109375 26.03125 C11.73574938 31.05320028 6.17844446 36.78827324 2 48 C1.34 48 0.68 48 0 48 C-0.3403125 47.21496094 -0.680625 46.42992187 -1.03125 45.62109375 C-6.05320028 34.73574938 -11.78827324 29.17844446 -23 25 C-23 24.34 -23 23.68 -23 23 C-22.21496094 22.6596875 -21.42992187 22.319375 -20.62109375 21.96875 C-9.73574938 16.94679972 -4.17844446 11.21172676 0 0 Z " fill="#F2F2ED" transform="translate(967,944)"/>
<path d="M0 0 C0.042721 1.66611905 0.04063832 3.33382885 0 5 C-1.51185506 6.51185506 -2.95570428 6.07440799 -5.0625 6.125 C-10.8839581 6.70156614 -14.26556502 9.66294226 -18 14 C-19.53134378 16.71826792 -19.53134378 16.71826792 -20 19 C-21.65 19 -23.3 19 -25 19 C-24.73187424 12.56498185 -22.54490517 8.56470868 -18 4 C-12.38566464 -0.29190091 -6.86368372 -0.50633732 0 0 Z " fill="#535F51" transform="translate(515,644)"/>
<path d="M0 0 C0.66 0.33 1.32 0.66 2 1 C1.01 2.485 1.01 2.485 0 4 C0.33 4.66 0.66 5.32 1 6 C-2.39540285 7.45933706 -5.79139757 8.91729178 -9.1875 10.375 C-10.14720703 10.7875 -11.10691406 11.2 -12.09570312 11.625 C-13.02705078 12.02460937 -13.95839844 12.42421875 -14.91796875 12.8359375 C-15.77156982 13.20251465 -16.6251709 13.5690918 -17.50463867 13.94677734 C-19.99116627 14.99627153 -22.49091431 16.0057969 -25 17 C-20.69118109 12.42956979 -15.69073325 9.46339206 -10.375 6.1875 C-9.40820312 5.57712891 -8.44140625 4.96675781 -7.4453125 4.33789062 C-6.52234375 3.76619141 -5.599375 3.19449219 -4.6484375 2.60546875 C-3.80458496 2.08106201 -2.96073242 1.55665527 -2.09130859 1.01635742 C-1.40117676 0.68095947 -0.71104492 0.34556152 0 0 Z " fill="#D8DACC" transform="translate(550,753)"/>
<path d="M0 0 C3.89006773 1.38780795 6.96558708 3.2152227 10.3125 5.625 C11.19550781 6.25664063 12.07851563 6.88828125 12.98828125 7.5390625 C13.65214844 8.02117188 14.31601562 8.50328125 15 9 C14.01 9.495 14.01 9.495 13 10 C10.21484375 8.92578125 10.21484375 8.92578125 6.9375 7.3125 C5.85339844 6.79300781 4.76929688 6.27351562 3.65234375 5.73828125 C1 4 1 4 0.12890625 1.79296875 C0.06509766 0.90544922 0.06509766 0.90544922 0 0 Z " fill="#CCCDBF" transform="translate(482,759)"/>
<path d="M0 0 C1.32 0.66 2.64 1.32 4 2 C2.04669132 3.03041513 0.08718472 4.0490893 -1.875 5.0625 C-2.96554687 5.63097656 -4.05609375 6.19945312 -5.1796875 6.78515625 C-6.11039063 7.18605469 -7.04109375 7.58695313 -8 8 C-8.66 7.67 -9.32 7.34 -10 7 C-6.7 4.69 -3.4 2.38 0 0 Z " fill="#C6CBBE" transform="translate(535,762)"/>
</svg>
